<svg xmlns="http://www.w3.org/2000/svg" width="900" height="900" viewBox="0 0 900 900">
  <rect width="900" height="900" fill="none"/>
  <g transform="translate(194 80)">
  <rect x="64" y="48" width="384" height="416" rx="108" fill="#68A95C"/>
  <rect x="93" y="77" width="326" height="358" rx="88" fill="#315C3B"/>
  <rect x="150" y="112" width="190" height="285" rx="38" fill="#FFF7E8"/>
  <rect x="174" y="151" width="135" height="103" rx="18" fill="#E8F2E5"/>
  <rect x="174" y="276" width="135" height="82" rx="18" fill="#E8F2E5"/>
  <rect x="326" y="172" width="24" height="122" rx="12" fill="#C7D7CE"/>
  <path d="M214 330c-43-7-70-34-80-76 46 2 78 25 93 67z" fill="#68A95C"/>
  <path d="M245 346c15-64 58-104 126-112-5 70-47 112-126 112z" fill="#F2C14E"/>
  <circle cx="337" cy="342" r="72" fill="#FFFFFF"/>
  <path d="M301 343l27 28 56-67" fill="none" stroke="#68A95C" stroke-width="32" stroke-linecap="round" stroke-linejoin="round"/>
</g>
  <text x="450" y="690" text-anchor="middle" font-family="Segoe UI, Arial, sans-serif" font-weight="700" font-size="92" fill="#1E2922">Fridge Finish</text>
  <text x="450" y="750" text-anchor="middle" font-family="Segoe UI, Arial, sans-serif" font-size="34" fill="#315C3B">Use food before waste</text>
</svg>
